<?xml version="1.0" encoding="utf-8" standalone="no"?>
<!DOCTYPE svg PUBLIC "-//W3C//DTD SVG 1.1//EN"
  "http://www.w3.org/Graphics/SVG/1.1/DTD/svg11.dtd">
<svg xmlns:xlink="http://www.w3.org/1999/xlink" width="1357.92pt" height="469.44pt" viewBox="0 0 1357.92 469.44" xmlns="http://www.w3.org/2000/svg" version="1.1">
 <metadata>
  <rdf:RDF xmlns:dc="http://purl.org/dc/elements/1.1/" xmlns:cc="http://creativecommons.org/ns#" xmlns:rdf="http://www.w3.org/1999/02/22-rdf-syntax-ns#">
   <cc:Work>
    <dc:type rdf:resource="http://purl.org/dc/dcmitype/StillImage"/>
    <dc:date>2025-05-28T11:54:47.524612</dc:date>
    <dc:format>image/svg+xml</dc:format>
    <dc:creator>
     <cc:Agent>
      <dc:title>Matplotlib v3.5.1, https://matplotlib.org/</dc:title>
     </cc:Agent>
    </dc:creator>
   </cc:Work>
  </rdf:RDF>
 </metadata>
 <defs>
  <style type="text/css">*{stroke-linejoin: round; stroke-linecap: butt}</style>
 </defs>
 <g id="figure_1">
  <g id="patch_1">
   <path d="M 0 469.44 
L 1357.92 469.44 
L 1357.92 0 
L 0 0 
z
" style="fill: #faf0e6"/>
  </g>
  <g id="axes_1">
   <g id="patch_2">
    <path d="M 457.753057 242.046109 
C 457.753057 220.063823 453.423026 198.295286 445.010769 177.986302 
C 436.598512 157.677318 424.267627 139.222844 408.723803 123.67902 
C 393.179979 108.135196 374.725506 95.804311 354.416521 87.392054 
C 334.107537 78.979797 312.339 74.649766 290.356714 74.649766 
C 268.374428 74.649766 246.605891 78.979797 226.296907 87.392054 
C 205.987923 95.804311 187.533449 108.135196 171.989625 123.67902 
C 156.445801 139.222844 144.114916 157.677318 135.702659 177.986302 
C 127.290402 198.295286 122.960371 220.063823 122.960371 242.046109 
C 122.960371 264.028395 127.290402 285.796932 135.702659 306.105916 
C 144.114916 326.414901 156.445801 344.869375 171.989625 360.413198 
C 187.533449 375.957022 205.987923 388.287907 226.296907 396.700164 
C 246.605891 405.112421 268.374428 409.442452 290.356714 409.442452 
C 312.339 409.442452 334.107537 405.112421 354.416521 396.700164 
C 374.725506 388.287907 393.179979 375.957022 408.723803 360.413198 
C 424.267627 344.869375 436.598512 326.414901 445.010769 306.105916 
C 453.423026 285.796932 457.753057 264.028395 457.753057 242.046109 
M 290.356714 242.046109 
C 290.356714 242.046109 290.356714 242.046109 290.356714 242.046109 
C 290.356714 242.046109 290.356714 242.046109 290.356714 242.046109 
C 290.356714 242.046109 290.356714 242.046109 290.356714 242.046109 
C 290.356714 242.046109 290.356714 242.046109 290.356714 242.046109 
C 290.356714 242.046109 290.356714 242.046109 290.356714 242.046109 
C 290.356714 242.046109 290.356714 242.046109 290.356714 242.046109 
C 290.356714 242.046109 290.356714 242.046109 290.356714 242.046109 
C 290.356714 242.046109 290.356714 242.046109 290.356714 242.046109 
C 290.356714 242.046109 290.356714 242.046109 290.356714 242.046109 
C 290.356714 242.046109 290.356714 242.046109 290.356714 242.046109 
C 290.356714 242.046109 290.356714 242.046109 290.356714 242.046109 
C 290.356714 242.046109 290.356714 242.046109 290.356714 242.046109 
C 290.356714 242.046109 290.356714 242.046109 290.356714 242.046109 
C 290.356714 242.046109 290.356714 242.046109 290.356714 242.046109 
C 290.356714 242.046109 290.356714 242.046109 290.356714 242.046109 
C 290.356714 242.046109 290.356714 242.046109 290.356714 242.046109 
M 457.753057 242.046109 
z
" style="fill: #fffaf0"/>
   </g>
   <g id="patch_3">
    <path d="M 226.839759 341.297829 
C 209.8019 330.394311 195.855236 315.285126 186.347758 297.430625 
C 176.84028 279.576124 172.088493 259.570689 172.551675 239.347909 
C 173.014856 219.12513 178.677586 199.358228 188.992542 181.957739 
C 199.307499 164.55725 213.931294 150.102441 231.450492 139.990416 
L 210.660061 103.970759 
C 186.957617 117.651735 167.172481 137.208241 153.216952 160.750079 
C 139.261423 184.291917 131.600083 211.035373 130.973426 238.395604 
C 130.346768 265.755835 136.775656 292.822012 149.638715 316.978101 
C 162.501773 341.134191 181.370789 361.57603 204.42201 376.327848 
z
" clip-path="url(#pc22e96e763)" style="fill: #e41a1c; opacity: 0.4"/>
   </g>
   <g id="patch_4">
    <path d="M 231.450492 139.990416 
C 240.367263 134.843684 249.920222 130.887685 259.86508 128.223581 
C 269.809938 125.559478 280.061198 124.210174 290.356714 124.210174 
L 290.356714 82.621021 
C 276.427486 82.621021 262.558135 84.446549 249.103327 88.050925 
C 235.648518 91.6553 222.723927 97.007534 210.660061 103.970759 
z
" clip-path="url(#pc22e96e763)" style="fill: #4daf4a; opacity: 0.4"/>
   </g>
   <g id="line2d_1">
    <path d="M 290.356714 89.552546 
L 366.603495 109.98281 
L 422.420013 165.799328 
L 442.850277 242.046109 
L 422.420013 318.292891 
L 366.603495 374.109408 
L 290.356714 394.539672 
L 214.109933 374.109408 
L 158.293415 318.292891 
L 137.863151 242.046109 
L 158.293415 165.799328 
L 214.109933 109.98281 
L 290.356714 89.552546 
" clip-path="url(#pc22e96e763)" style="fill: none; stroke: #b8860b; stroke-width: 2; stroke-linecap: square"/>
   </g>
   <g id="text_1">
    <!-- 19 |  5 -->
    <g style="fill: #006400" transform="translate(269.374527 78.86012)scale(0.12 -0.12)">
     <defs>
      <path id="DejaVuSans-Bold-31" d="M 750 831 
L 1813 831 
L 1813 3847 
L 722 3622 
L 722 4441 
L 1806 4666 
L 2950 4666 
L 2950 831 
L 4013 831 
L 4013 0 
L 750 0 
L 750 831 
z
" transform="scale(0.015625)"/>
      <path id="DejaVuSans-Bold-39" d="M 641 103 
L 641 966 
Q 928 831 1190 764 
Q 1453 697 1709 697 
Q 2247 697 2547 995 
Q 2847 1294 2900 1881 
Q 2688 1725 2447 1647 
Q 2206 1569 1925 1569 
Q 1209 1569 770 1986 
Q 331 2403 331 3084 
Q 331 3838 820 4291 
Q 1309 4744 2131 4744 
Q 3044 4744 3544 4128 
Q 4044 3513 4044 2388 
Q 4044 1231 3459 570 
Q 2875 -91 1856 -91 
Q 1528 -91 1228 -42 
Q 928 6 641 103 
z
M 2125 2350 
Q 2441 2350 2600 2554 
Q 2759 2759 2759 3169 
Q 2759 3575 2600 3781 
Q 2441 3988 2125 3988 
Q 1809 3988 1650 3781 
Q 1491 3575 1491 3169 
Q 1491 2759 1650 2554 
Q 1809 2350 2125 2350 
z
" transform="scale(0.015625)"/>
      <path id="DejaVuSans-Bold-20" transform="scale(0.015625)"/>
      <path id="DejaVuSans-Bold-7c" d="M 1522 4891 
L 1522 -1509 
L 813 -1509 
L 813 4891 
L 1522 4891 
z
" transform="scale(0.015625)"/>
      <path id="DejaVuSans-Bold-35" d="M 678 4666 
L 3669 4666 
L 3669 3781 
L 1638 3781 
L 1638 3059 
Q 1775 3097 1914 3117 
Q 2053 3138 2203 3138 
Q 3056 3138 3531 2711 
Q 4006 2284 4006 1522 
Q 4006 766 3489 337 
Q 2972 -91 2053 -91 
Q 1656 -91 1267 -14 
Q 878 63 494 219 
L 494 1166 
Q 875 947 1217 837 
Q 1559 728 1863 728 
Q 2300 728 2551 942 
Q 2803 1156 2803 1522 
Q 2803 1891 2551 2103 
Q 2300 2316 1863 2316 
Q 1603 2316 1309 2248 
Q 1016 2181 678 2041 
L 678 4666 
z
" transform="scale(0.015625)"/>
     </defs>
     <use xlink:href="#DejaVuSans-Bold-31"/>
     <use xlink:href="#DejaVuSans-Bold-39" x="69.580078"/>
     <use xlink:href="#DejaVuSans-Bold-20" x="139.160156"/>
     <use xlink:href="#DejaVuSans-Bold-7c" x="173.974609"/>
     <use xlink:href="#DejaVuSans-Bold-20" x="210.498047"/>
     <use xlink:href="#DejaVuSans-Bold-20" x="245.3125"/>
     <use xlink:href="#DejaVuSans-Bold-35" x="280.126953"/>
    </g>
   </g>
   <g id="text_2">
    <!-- 5.6 -->
    <g style="fill: #006400" transform="translate(362.906584 101.288305)scale(0.12 -0.12)">
     <defs>
      <path id="DejaVuSans-Bold-2e" d="M 653 1209 
L 1778 1209 
L 1778 0 
L 653 0 
L 653 1209 
z
" transform="scale(0.015625)"/>
      <path id="DejaVuSans-Bold-36" d="M 2316 2303 
Q 2000 2303 1842 2098 
Q 1684 1894 1684 1484 
Q 1684 1075 1842 870 
Q 2000 666 2316 666 
Q 2634 666 2792 870 
Q 2950 1075 2950 1484 
Q 2950 1894 2792 2098 
Q 2634 2303 2316 2303 
z
M 3803 4544 
L 3803 3681 
Q 3506 3822 3243 3889 
Q 2981 3956 2731 3956 
Q 2194 3956 1894 3657 
Q 1594 3359 1544 2772 
Q 1750 2925 1990 3001 
Q 2231 3078 2516 3078 
Q 3231 3078 3670 2659 
Q 4109 2241 4109 1563 
Q 4109 813 3618 361 
Q 3128 -91 2303 -91 
Q 1394 -91 895 523 
Q 397 1138 397 2266 
Q 397 3422 980 4083 
Q 1563 4744 2578 4744 
Q 2900 4744 3203 4694 
Q 3506 4644 3803 4544 
z
" transform="scale(0.015625)"/>
     </defs>
     <use xlink:href="#DejaVuSans-Bold-35"/>
     <use xlink:href="#DejaVuSans-Bold-2e" x="69.580078"/>
     <use xlink:href="#DejaVuSans-Bold-36" x="107.568359"/>
    </g>
   </g>
   <g id="text_3">
    <!-- 6.2 -->
    <g style="fill: #006400" transform="translate(423.79733 162.179052)scale(0.12 -0.12)">
     <defs>
      <path id="DejaVuSans-Bold-32" d="M 1844 884 
L 3897 884 
L 3897 0 
L 506 0 
L 506 884 
L 2209 2388 
Q 2438 2594 2547 2791 
Q 2656 2988 2656 3200 
Q 2656 3528 2436 3728 
Q 2216 3928 1850 3928 
Q 1569 3928 1234 3808 
Q 900 3688 519 3450 
L 519 4475 
Q 925 4609 1322 4679 
Q 1719 4750 2100 4750 
Q 2938 4750 3402 4381 
Q 3866 4013 3866 3353 
Q 3866 2972 3669 2642 
Q 3472 2313 2841 1759 
L 1844 884 
z
" transform="scale(0.015625)"/>
     </defs>
     <use xlink:href="#DejaVuSans-Bold-36"/>
     <use xlink:href="#DejaVuSans-Bold-2e" x="69.580078"/>
     <use xlink:href="#DejaVuSans-Bold-32" x="107.568359"/>
    </g>
   </g>
   <g id="text_4">
    <!-- 7.0 -->
    <g style="fill: #006400" transform="translate(446.084891 245.357359)scale(0.12 -0.12)">
     <defs>
      <path id="DejaVuSans-Bold-37" d="M 428 4666 
L 3944 4666 
L 3944 3988 
L 2125 0 
L 953 0 
L 2675 3781 
L 428 3781 
L 428 4666 
z
" transform="scale(0.015625)"/>
      <path id="DejaVuSans-Bold-30" d="M 2944 2338 
Q 2944 3213 2780 3570 
Q 2616 3928 2228 3928 
Q 1841 3928 1675 3570 
Q 1509 3213 1509 2338 
Q 1509 1453 1675 1090 
Q 1841 728 2228 728 
Q 2613 728 2778 1090 
Q 2944 1453 2944 2338 
z
M 4147 2328 
Q 4147 1169 3647 539 
Q 3147 -91 2228 -91 
Q 1306 -91 806 539 
Q 306 1169 306 2328 
Q 306 3491 806 4120 
Q 1306 4750 2228 4750 
Q 3147 4750 3647 4120 
Q 4147 3491 4147 2328 
z
" transform="scale(0.015625)"/>
     </defs>
     <use xlink:href="#DejaVuSans-Bold-37"/>
     <use xlink:href="#DejaVuSans-Bold-2e" x="69.580078"/>
     <use xlink:href="#DejaVuSans-Bold-30" x="107.568359"/>
    </g>
   </g>
   <g id="text_5">
    <!-- 7.8 -->
    <g style="fill: #006400" transform="translate(423.79733 328.535666)scale(0.12 -0.12)">
     <defs>
      <path id="DejaVuSans-Bold-38" d="M 2228 2088 
Q 1891 2088 1709 1903 
Q 1528 1719 1528 1375 
Q 1528 1031 1709 848 
Q 1891 666 2228 666 
Q 2563 666 2741 848 
Q 2919 1031 2919 1375 
Q 2919 1722 2741 1905 
Q 2563 2088 2228 2088 
z
M 1350 2484 
Q 925 2613 709 2878 
Q 494 3144 494 3541 
Q 494 4131 934 4440 
Q 1375 4750 2228 4750 
Q 3075 4750 3515 4442 
Q 3956 4134 3956 3541 
Q 3956 3144 3739 2878 
Q 3522 2613 3097 2484 
Q 3572 2353 3814 2058 
Q 4056 1763 4056 1313 
Q 4056 619 3595 264 
Q 3134 -91 2228 -91 
Q 1319 -91 855 264 
Q 391 619 391 1313 
Q 391 1763 633 2058 
Q 875 2353 1350 2484 
z
M 1631 3419 
Q 1631 3141 1786 2991 
Q 1941 2841 2228 2841 
Q 2509 2841 2662 2991 
Q 2816 3141 2816 3419 
Q 2816 3697 2662 3845 
Q 2509 3994 2228 3994 
Q 1941 3994 1786 3844 
Q 1631 3694 1631 3419 
z
" transform="scale(0.015625)"/>
     </defs>
     <use xlink:href="#DejaVuSans-Bold-37"/>
     <use xlink:href="#DejaVuSans-Bold-2e" x="69.580078"/>
     <use xlink:href="#DejaVuSans-Bold-38" x="107.568359"/>
    </g>
   </g>
   <g id="text_6">
    <!-- 8.7 -->
    <g style="fill: #006400" transform="translate(362.906584 389.426413)scale(0.12 -0.12)">
     <use xlink:href="#DejaVuSans-Bold-38"/>
     <use xlink:href="#DejaVuSans-Bold-2e" x="69.580078"/>
     <use xlink:href="#DejaVuSans-Bold-37" x="107.568359"/>
    </g>
   </g>
   <g id="text_7">
    <!-- 9.7 -->
    <g style="fill: #006400" transform="translate(279.728277 411.713973)scale(0.12 -0.12)">
     <use xlink:href="#DejaVuSans-Bold-39"/>
     <use xlink:href="#DejaVuSans-Bold-2e" x="69.580078"/>
     <use xlink:href="#DejaVuSans-Bold-37" x="107.568359"/>
    </g>
   </g>
   <g id="text_8">
    <!-- 10.9 -->
    <g style="fill: #006400" transform="translate(192.375282 389.426413)scale(0.12 -0.12)">
     <use xlink:href="#DejaVuSans-Bold-31"/>
     <use xlink:href="#DejaVuSans-Bold-30" x="69.580078"/>
     <use xlink:href="#DejaVuSans-Bold-2e" x="139.160156"/>
     <use xlink:href="#DejaVuSans-Bold-39" x="177.148438"/>
    </g>
   </g>
   <g id="text_9">
    <!-- 12.2 -->
    <g style="fill: #006400" transform="translate(131.484535 328.535666)scale(0.12 -0.12)">
     <use xlink:href="#DejaVuSans-Bold-31"/>
     <use xlink:href="#DejaVuSans-Bold-32" x="69.580078"/>
     <use xlink:href="#DejaVuSans-Bold-2e" x="139.160156"/>
     <use xlink:href="#DejaVuSans-Bold-32" x="177.148438"/>
    </g>
   </g>
   <g id="text_10">
    <!-- 13.6 -->
    <g style="fill: #006400" transform="translate(109.196975 245.357359)scale(0.12 -0.12)">
     <defs>
      <path id="DejaVuSans-Bold-33" d="M 2981 2516 
Q 3453 2394 3698 2092 
Q 3944 1791 3944 1325 
Q 3944 631 3412 270 
Q 2881 -91 1863 -91 
Q 1503 -91 1142 -33 
Q 781 25 428 141 
L 428 1069 
Q 766 900 1098 814 
Q 1431 728 1753 728 
Q 2231 728 2486 893 
Q 2741 1059 2741 1369 
Q 2741 1688 2480 1852 
Q 2219 2016 1709 2016 
L 1228 2016 
L 1228 2791 
L 1734 2791 
Q 2188 2791 2409 2933 
Q 2631 3075 2631 3366 
Q 2631 3634 2415 3781 
Q 2200 3928 1806 3928 
Q 1516 3928 1219 3862 
Q 922 3797 628 3669 
L 628 4550 
Q 984 4650 1334 4700 
Q 1684 4750 2022 4750 
Q 2931 4750 3382 4451 
Q 3834 4153 3834 3553 
Q 3834 3144 3618 2883 
Q 3403 2622 2981 2516 
z
" transform="scale(0.015625)"/>
     </defs>
     <use xlink:href="#DejaVuSans-Bold-31"/>
     <use xlink:href="#DejaVuSans-Bold-33" x="69.580078"/>
     <use xlink:href="#DejaVuSans-Bold-2e" x="139.160156"/>
     <use xlink:href="#DejaVuSans-Bold-36" x="177.148438"/>
    </g>
   </g>
   <g id="text_11">
    <!-- 15.2 -->
    <g style="fill: #006400" transform="translate(131.484535 162.179052)scale(0.12 -0.12)">
     <use xlink:href="#DejaVuSans-Bold-31"/>
     <use xlink:href="#DejaVuSans-Bold-35" x="69.580078"/>
     <use xlink:href="#DejaVuSans-Bold-2e" x="139.160156"/>
     <use xlink:href="#DejaVuSans-Bold-32" x="177.148438"/>
    </g>
   </g>
   <g id="text_12">
    <!-- 17.0 -->
    <g style="fill: #006400" transform="translate(192.375282 101.288305)scale(0.12 -0.12)">
     <use xlink:href="#DejaVuSans-Bold-31"/>
     <use xlink:href="#DejaVuSans-Bold-37" x="69.580078"/>
     <use xlink:href="#DejaVuSans-Bold-2e" x="139.160156"/>
     <use xlink:href="#DejaVuSans-Bold-30" x="177.148438"/>
    </g>
   </g>
   <g id="text_13">
    <!-- Childhood to Adolescence -->
    <g style="fill: #00008b" transform="translate(199.736245 28.972829)scale(0.14 -0.14)">
     <defs>
      <path id="DejaVuSans-43" d="M 4122 4306 
L 4122 3641 
Q 3803 3938 3442 4084 
Q 3081 4231 2675 4231 
Q 1875 4231 1450 3742 
Q 1025 3253 1025 2328 
Q 1025 1406 1450 917 
Q 1875 428 2675 428 
Q 3081 428 3442 575 
Q 3803 722 4122 1019 
L 4122 359 
Q 3791 134 3420 21 
Q 3050 -91 2638 -91 
Q 1578 -91 968 557 
Q 359 1206 359 2328 
Q 359 3453 968 4101 
Q 1578 4750 2638 4750 
Q 3056 4750 3426 4639 
Q 3797 4528 4122 4306 
z
" transform="scale(0.015625)"/>
      <path id="DejaVuSans-68" d="M 3513 2113 
L 3513 0 
L 2938 0 
L 2938 2094 
Q 2938 2591 2744 2837 
Q 2550 3084 2163 3084 
Q 1697 3084 1428 2787 
Q 1159 2491 1159 1978 
L 1159 0 
L 581 0 
L 581 4863 
L 1159 4863 
L 1159 2956 
Q 1366 3272 1645 3428 
Q 1925 3584 2291 3584 
Q 2894 3584 3203 3211 
Q 3513 2838 3513 2113 
z
" transform="scale(0.015625)"/>
      <path id="DejaVuSans-69" d="M 603 3500 
L 1178 3500 
L 1178 0 
L 603 0 
L 603 3500 
z
M 603 4863 
L 1178 4863 
L 1178 4134 
L 603 4134 
L 603 4863 
z
" transform="scale(0.015625)"/>
      <path id="DejaVuSans-6c" d="M 603 4863 
L 1178 4863 
L 1178 0 
L 603 0 
L 603 4863 
z
" transform="scale(0.015625)"/>
      <path id="DejaVuSans-64" d="M 2906 2969 
L 2906 4863 
L 3481 4863 
L 3481 0 
L 2906 0 
L 2906 525 
Q 2725 213 2448 61 
Q 2172 -91 1784 -91 
Q 1150 -91 751 415 
Q 353 922 353 1747 
Q 353 2572 751 3078 
Q 1150 3584 1784 3584 
Q 2172 3584 2448 3432 
Q 2725 3281 2906 2969 
z
M 947 1747 
Q 947 1113 1208 752 
Q 1469 391 1925 391 
Q 2381 391 2643 752 
Q 2906 1113 2906 1747 
Q 2906 2381 2643 2742 
Q 2381 3103 1925 3103 
Q 1469 3103 1208 2742 
Q 947 2381 947 1747 
z
" transform="scale(0.015625)"/>
      <path id="DejaVuSans-6f" d="M 1959 3097 
Q 1497 3097 1228 2736 
Q 959 2375 959 1747 
Q 959 1119 1226 758 
Q 1494 397 1959 397 
Q 2419 397 2687 759 
Q 2956 1122 2956 1747 
Q 2956 2369 2687 2733 
Q 2419 3097 1959 3097 
z
M 1959 3584 
Q 2709 3584 3137 3096 
Q 3566 2609 3566 1747 
Q 3566 888 3137 398 
Q 2709 -91 1959 -91 
Q 1206 -91 779 398 
Q 353 888 353 1747 
Q 353 2609 779 3096 
Q 1206 3584 1959 3584 
z
" transform="scale(0.015625)"/>
      <path id="DejaVuSans-20" transform="scale(0.015625)"/>
      <path id="DejaVuSans-74" d="M 1172 4494 
L 1172 3500 
L 2356 3500 
L 2356 3053 
L 1172 3053 
L 1172 1153 
Q 1172 725 1289 603 
Q 1406 481 1766 481 
L 2356 481 
L 2356 0 
L 1766 0 
Q 1100 0 847 248 
Q 594 497 594 1153 
L 594 3053 
L 172 3053 
L 172 3500 
L 594 3500 
L 594 4494 
L 1172 4494 
z
" transform="scale(0.015625)"/>
      <path id="DejaVuSans-41" d="M 2188 4044 
L 1331 1722 
L 3047 1722 
L 2188 4044 
z
M 1831 4666 
L 2547 4666 
L 4325 0 
L 3669 0 
L 3244 1197 
L 1141 1197 
L 716 0 
L 50 0 
L 1831 4666 
z
" transform="scale(0.015625)"/>
      <path id="DejaVuSans-65" d="M 3597 1894 
L 3597 1613 
L 953 1613 
Q 991 1019 1311 708 
Q 1631 397 2203 397 
Q 2534 397 2845 478 
Q 3156 559 3463 722 
L 3463 178 
Q 3153 47 2828 -22 
Q 2503 -91 2169 -91 
Q 1331 -91 842 396 
Q 353 884 353 1716 
Q 353 2575 817 3079 
Q 1281 3584 2069 3584 
Q 2775 3584 3186 3129 
Q 3597 2675 3597 1894 
z
M 3022 2063 
Q 3016 2534 2758 2815 
Q 2500 3097 2075 3097 
Q 1594 3097 1305 2825 
Q 1016 2553 972 2059 
L 3022 2063 
z
" transform="scale(0.015625)"/>
      <path id="DejaVuSans-73" d="M 2834 3397 
L 2834 2853 
Q 2591 2978 2328 3040 
Q 2066 3103 1784 3103 
Q 1356 3103 1142 2972 
Q 928 2841 928 2578 
Q 928 2378 1081 2264 
Q 1234 2150 1697 2047 
L 1894 2003 
Q 2506 1872 2764 1633 
Q 3022 1394 3022 966 
Q 3022 478 2636 193 
Q 2250 -91 1575 -91 
Q 1294 -91 989 -36 
Q 684 19 347 128 
L 347 722 
Q 666 556 975 473 
Q 1284 391 1588 391 
Q 1994 391 2212 530 
Q 2431 669 2431 922 
Q 2431 1156 2273 1281 
Q 2116 1406 1581 1522 
L 1381 1569 
Q 847 1681 609 1914 
Q 372 2147 372 2553 
Q 372 3047 722 3315 
Q 1072 3584 1716 3584 
Q 2034 3584 2315 3537 
Q 2597 3491 2834 3397 
z
" transform="scale(0.015625)"/>
      <path id="DejaVuSans-63" d="M 3122 3366 
L 3122 2828 
Q 2878 2963 2633 3030 
Q 2388 3097 2138 3097 
Q 1578 3097 1268 2742 
Q 959 2388 959 1747 
Q 959 1106 1268 751 
Q 1578 397 2138 397 
Q 2388 397 2633 464 
Q 2878 531 3122 666 
L 3122 134 
Q 2881 22 2623 -34 
Q 2366 -91 2075 -91 
Q 1284 -91 818 406 
Q 353 903 353 1747 
Q 353 2603 823 3093 
Q 1294 3584 2113 3584 
Q 2378 3584 2631 3529 
Q 2884 3475 3122 3366 
z
" transform="scale(0.015625)"/>
      <path id="DejaVuSans-6e" d="M 3513 2113 
L 3513 0 
L 2938 0 
L 2938 2094 
Q 2938 2591 2744 2837 
Q 2550 3084 2163 3084 
Q 1697 3084 1428 2787 
Q 1159 2491 1159 1978 
L 1159 0 
L 581 0 
L 581 3500 
L 1159 3500 
L 1159 2956 
Q 1366 3272 1645 3428 
Q 1925 3584 2291 3584 
Q 2894 3584 3203 3211 
Q 3513 2838 3513 2113 
z
" transform="scale(0.015625)"/>
     </defs>
     <use xlink:href="#DejaVuSans-43"/>
     <use xlink:href="#DejaVuSans-68" x="69.824219"/>
     <use xlink:href="#DejaVuSans-69" x="133.203125"/>
     <use xlink:href="#DejaVuSans-6c" x="160.986328"/>
     <use xlink:href="#DejaVuSans-64" x="188.769531"/>
     <use xlink:href="#DejaVuSans-68" x="252.246094"/>
     <use xlink:href="#DejaVuSans-6f" x="315.625"/>
     <use xlink:href="#DejaVuSans-6f" x="376.806641"/>
     <use xlink:href="#DejaVuSans-64" x="437.988281"/>
     <use xlink:href="#DejaVuSans-20" x="501.464844"/>
     <use xlink:href="#DejaVuSans-74" x="533.251953"/>
     <use xlink:href="#DejaVuSans-6f" x="572.460938"/>
     <use xlink:href="#DejaVuSans-20" x="633.642578"/>
     <use xlink:href="#DejaVuSans-41" x="665.429688"/>
     <use xlink:href="#DejaVuSans-64" x="732.087891"/>
     <use xlink:href="#DejaVuSans-6f" x="795.564453"/>
     <use xlink:href="#DejaVuSans-6c" x="856.746094"/>
     <use xlink:href="#DejaVuSans-65" x="884.529297"/>
     <use xlink:href="#DejaVuSans-73" x="946.052734"/>
     <use xlink:href="#DejaVuSans-63" x="998.152344"/>
     <use xlink:href="#DejaVuSans-65" x="1053.132812"/>
     <use xlink:href="#DejaVuSans-6e" x="1114.65625"/>
     <use xlink:href="#DejaVuSans-63" x="1178.035156"/>
     <use xlink:href="#DejaVuSans-65" x="1233.015625"/>
    </g>
    <!-- (5-19 Years) -->
    <g style="fill: #00008b" transform="translate(248.314058 44.649766)scale(0.14 -0.14)">
     <defs>
      <path id="DejaVuSans-28" d="M 1984 4856 
Q 1566 4138 1362 3434 
Q 1159 2731 1159 2009 
Q 1159 1288 1364 580 
Q 1569 -128 1984 -844 
L 1484 -844 
Q 1016 -109 783 600 
Q 550 1309 550 2009 
Q 550 2706 781 3412 
Q 1013 4119 1484 4856 
L 1984 4856 
z
" transform="scale(0.015625)"/>
      <path id="DejaVuSans-35" d="M 691 4666 
L 3169 4666 
L 3169 4134 
L 1269 4134 
L 1269 2991 
Q 1406 3038 1543 3061 
Q 1681 3084 1819 3084 
Q 2600 3084 3056 2656 
Q 3513 2228 3513 1497 
Q 3513 744 3044 326 
Q 2575 -91 1722 -91 
Q 1428 -91 1123 -41 
Q 819 9 494 109 
L 494 744 
Q 775 591 1075 516 
Q 1375 441 1709 441 
Q 2250 441 2565 725 
Q 2881 1009 2881 1497 
Q 2881 1984 2565 2268 
Q 2250 2553 1709 2553 
Q 1456 2553 1204 2497 
Q 953 2441 691 2322 
L 691 4666 
z
" transform="scale(0.015625)"/>
      <path id="DejaVuSans-2d" d="M 313 2009 
L 1997 2009 
L 1997 1497 
L 313 1497 
L 313 2009 
z
" transform="scale(0.015625)"/>
      <path id="DejaVuSans-31" d="M 794 531 
L 1825 531 
L 1825 4091 
L 703 3866 
L 703 4441 
L 1819 4666 
L 2450 4666 
L 2450 531 
L 3481 531 
L 3481 0 
L 794 0 
L 794 531 
z
" transform="scale(0.015625)"/>
      <path id="DejaVuSans-39" d="M 703 97 
L 703 672 
Q 941 559 1184 500 
Q 1428 441 1663 441 
Q 2288 441 2617 861 
Q 2947 1281 2994 2138 
Q 2813 1869 2534 1725 
Q 2256 1581 1919 1581 
Q 1219 1581 811 2004 
Q 403 2428 403 3163 
Q 403 3881 828 4315 
Q 1253 4750 1959 4750 
Q 2769 4750 3195 4129 
Q 3622 3509 3622 2328 
Q 3622 1225 3098 567 
Q 2575 -91 1691 -91 
Q 1453 -91 1209 -44 
Q 966 3 703 97 
z
M 1959 2075 
Q 2384 2075 2632 2365 
Q 2881 2656 2881 3163 
Q 2881 3666 2632 3958 
Q 2384 4250 1959 4250 
Q 1534 4250 1286 3958 
Q 1038 3666 1038 3163 
Q 1038 2656 1286 2365 
Q 1534 2075 1959 2075 
z
" transform="scale(0.015625)"/>
      <path id="DejaVuSans-59" d="M -13 4666 
L 666 4666 
L 1959 2747 
L 3244 4666 
L 3922 4666 
L 2272 2222 
L 2272 0 
L 1638 0 
L 1638 2222 
L -13 4666 
z
" transform="scale(0.015625)"/>
      <path id="DejaVuSans-61" d="M 2194 1759 
Q 1497 1759 1228 1600 
Q 959 1441 959 1056 
Q 959 750 1161 570 
Q 1363 391 1709 391 
Q 2188 391 2477 730 
Q 2766 1069 2766 1631 
L 2766 1759 
L 2194 1759 
z
M 3341 1997 
L 3341 0 
L 2766 0 
L 2766 531 
Q 2569 213 2275 61 
Q 1981 -91 1556 -91 
Q 1019 -91 701 211 
Q 384 513 384 1019 
Q 384 1609 779 1909 
Q 1175 2209 1959 2209 
L 2766 2209 
L 2766 2266 
Q 2766 2663 2505 2880 
Q 2244 3097 1772 3097 
Q 1472 3097 1187 3025 
Q 903 2953 641 2809 
L 641 3341 
Q 956 3463 1253 3523 
Q 1550 3584 1831 3584 
Q 2591 3584 2966 3190 
Q 3341 2797 3341 1997 
z
" transform="scale(0.015625)"/>
      <path id="DejaVuSans-72" d="M 2631 2963 
Q 2534 3019 2420 3045 
Q 2306 3072 2169 3072 
Q 1681 3072 1420 2755 
Q 1159 2438 1159 1844 
L 1159 0 
L 581 0 
L 581 3500 
L 1159 3500 
L 1159 2956 
Q 1341 3275 1631 3429 
Q 1922 3584 2338 3584 
Q 2397 3584 2469 3576 
Q 2541 3569 2628 3553 
L 2631 2963 
z
" transform="scale(0.015625)"/>
      <path id="DejaVuSans-29" d="M 513 4856 
L 1013 4856 
Q 1481 4119 1714 3412 
Q 1947 2706 1947 2009 
Q 1947 1309 1714 600 
Q 1481 -109 1013 -844 
L 513 -844 
Q 928 -128 1133 580 
Q 1338 1288 1338 2009 
Q 1338 2731 1133 3434 
Q 928 4138 513 4856 
z
" transform="scale(0.015625)"/>
     </defs>
     <use xlink:href="#DejaVuSans-28"/>
     <use xlink:href="#DejaVuSans-35" x="39.013672"/>
     <use xlink:href="#DejaVuSans-2d" x="102.636719"/>
     <use xlink:href="#DejaVuSans-31" x="138.720703"/>
     <use xlink:href="#DejaVuSans-39" x="202.34375"/>
     <use xlink:href="#DejaVuSans-20" x="265.966797"/>
     <use xlink:href="#DejaVuSans-59" x="297.753906"/>
     <use xlink:href="#DejaVuSans-65" x="345.587891"/>
     <use xlink:href="#DejaVuSans-61" x="407.111328"/>
     <use xlink:href="#DejaVuSans-72" x="468.390625"/>
     <use xlink:href="#DejaVuSans-73" x="509.503906"/>
     <use xlink:href="#DejaVuSans-29" x="561.603516"/>
    </g>
   </g>
   <g id="LineCollection_1">
    <path d="M 356.206207 127.991441 
L 363.137733 115.985687 
" clip-path="url(#pc22e96e763)" style="fill: none; stroke: #8b4513; stroke-width: 2"/>
   </g>
   <g id="LineCollection_2">
    <path d="M 404.411382 176.196616 
L 416.417136 169.26509 
" clip-path="url(#pc22e96e763)" style="fill: none; stroke: #8b4513; stroke-width: 2"/>
   </g>
   <g id="LineCollection_3">
    <path d="M 422.0557 242.046109 
L 435.918751 242.046109 
" clip-path="url(#pc22e96e763)" style="fill: none; stroke: #8b4513; stroke-width: 2"/>
   </g>
   <g id="LineCollection_4">
    <path d="M 404.411382 307.895602 
L 416.417136 314.827128 
" clip-path="url(#pc22e96e763)" style="fill: none; stroke: #8b4513; stroke-width: 2"/>
   </g>
   <g id="LineCollection_5">
    <path d="M 356.206207 356.100777 
L 363.137733 368.106531 
" clip-path="url(#pc22e96e763)" style="fill: none; stroke: #8b4513; stroke-width: 2"/>
   </g>
   <g id="LineCollection_6">
    <path d="M 290.356714 373.745095 
L 290.356714 387.608146 
" clip-path="url(#pc22e96e763)" style="fill: none; stroke: #8b4513; stroke-width: 2"/>
   </g>
   <g id="LineCollection_7">
    <path d="M 224.507221 356.100777 
L 217.575695 368.106531 
" clip-path="url(#pc22e96e763)" style="fill: none; stroke: #8b4513; stroke-width: 2"/>
   </g>
   <g id="LineCollection_8">
    <path d="M 176.302046 307.895602 
L 164.296292 314.827128 
" clip-path="url(#pc22e96e763)" style="fill: none; stroke: #8b4513; stroke-width: 2"/>
   </g>
   <g id="LineCollection_9">
    <path d="M 158.657728 242.046109 
L 144.794677 242.046109 
" clip-path="url(#pc22e96e763)" style="fill: none; stroke: #8b4513; stroke-width: 2"/>
   </g>
   <g id="LineCollection_10">
    <path d="M 176.302046 176.196616 
L 164.296292 169.26509 
" clip-path="url(#pc22e96e763)" style="fill: none; stroke: #8b4513; stroke-width: 2"/>
   </g>
   <g id="LineCollection_11">
    <path d="M 224.507221 127.991441 
L 217.575695 115.985687 
" clip-path="url(#pc22e96e763)" style="fill: none; stroke: #8b4513; stroke-width: 2"/>
   </g>
   <g id="LineCollection_12">
    <path d="M 290.356714 110.347123 
L 290.356714 96.484072 
" clip-path="url(#pc22e96e763)" style="fill: none; stroke: #8b4513; stroke-width: 2"/>
   </g>
   <g id="line2d_2">
    <defs>
     <path id="m9625861ba1" d="M 0 5 
C 1.326016 5 2.597899 4.473168 3.535534 3.535534 
C 4.473168 2.597899 5 1.326016 5 0 
C 5 -1.326016 4.473168 -2.597899 3.535534 -3.535534 
C 2.597899 -4.473168 1.326016 -5 0 -5 
C -1.326016 -5 -2.597899 -4.473168 -3.535534 -3.535534 
C -4.473168 -2.597899 -5 -1.326016 -5 0 
C -5 1.326016 -4.473168 2.597899 -3.535534 3.535534 
C -2.597899 4.473168 -1.326016 5 0 5 
z
" style="stroke: #000000"/>
    </defs>
    <g clip-path="url(#pc22e96e763)">
     <use xlink:href="#m9625861ba1" x="290.356714" y="242.046109" style="stroke: #000000"/>
    </g>
   </g>
   <g id="legend_1">
    <g id="text_14">
     <!-- Life Stages -->
     <g transform="translate(519.779254 93.048204)scale(0.1 -0.1)">
      <defs>
       <path id="DejaVuSans-4c" d="M 628 4666 
L 1259 4666 
L 1259 531 
L 3531 531 
L 3531 0 
L 628 0 
L 628 4666 
z
" transform="scale(0.015625)"/>
       <path id="DejaVuSans-66" d="M 2375 4863 
L 2375 4384 
L 1825 4384 
Q 1516 4384 1395 4259 
Q 1275 4134 1275 3809 
L 1275 3500 
L 2222 3500 
L 2222 3053 
L 1275 3053 
L 1275 0 
L 697 0 
L 697 3053 
L 147 3053 
L 147 3500 
L 697 3500 
L 697 3744 
Q 697 4328 969 4595 
Q 1241 4863 1831 4863 
L 2375 4863 
z
" transform="scale(0.015625)"/>
       <path id="DejaVuSans-53" d="M 3425 4513 
L 3425 3897 
Q 3066 4069 2747 4153 
Q 2428 4238 2131 4238 
Q 1616 4238 1336 4038 
Q 1056 3838 1056 3469 
Q 1056 3159 1242 3001 
Q 1428 2844 1947 2747 
L 2328 2669 
Q 3034 2534 3370 2195 
Q 3706 1856 3706 1288 
Q 3706 609 3251 259 
Q 2797 -91 1919 -91 
Q 1588 -91 1214 -16 
Q 841 59 441 206 
L 441 856 
Q 825 641 1194 531 
Q 1563 422 1919 422 
Q 2459 422 2753 634 
Q 3047 847 3047 1241 
Q 3047 1584 2836 1778 
Q 2625 1972 2144 2069 
L 1759 2144 
Q 1053 2284 737 2584 
Q 422 2884 422 3419 
Q 422 4038 858 4394 
Q 1294 4750 2059 4750 
Q 2388 4750 2728 4690 
Q 3069 4631 3425 4513 
z
" transform="scale(0.015625)"/>
       <path id="DejaVuSans-67" d="M 2906 1791 
Q 2906 2416 2648 2759 
Q 2391 3103 1925 3103 
Q 1463 3103 1205 2759 
Q 947 2416 947 1791 
Q 947 1169 1205 825 
Q 1463 481 1925 481 
Q 2391 481 2648 825 
Q 2906 1169 2906 1791 
z
M 3481 434 
Q 3481 -459 3084 -895 
Q 2688 -1331 1869 -1331 
Q 1566 -1331 1297 -1286 
Q 1028 -1241 775 -1147 
L 775 -588 
Q 1028 -725 1275 -790 
Q 1522 -856 1778 -856 
Q 2344 -856 2625 -561 
Q 2906 -266 2906 331 
L 2906 616 
Q 2728 306 2450 153 
Q 2172 0 1784 0 
Q 1141 0 747 490 
Q 353 981 353 1791 
Q 353 2603 747 3093 
Q 1141 3584 1784 3584 
Q 2172 3584 2450 3431 
Q 2728 3278 2906 2969 
L 2906 3500 
L 3481 3500 
L 3481 434 
z
" transform="scale(0.015625)"/>
      </defs>
      <use xlink:href="#DejaVuSans-4c"/>
      <use xlink:href="#DejaVuSans-69" x="55.712891"/>
      <use xlink:href="#DejaVuSans-66" x="83.496094"/>
      <use xlink:href="#DejaVuSans-65" x="118.701172"/>
      <use xlink:href="#DejaVuSans-20" x="180.224609"/>
      <use xlink:href="#DejaVuSans-53" x="212.011719"/>
      <use xlink:href="#DejaVuSans-74" x="275.488281"/>
      <use xlink:href="#DejaVuSans-61" x="314.697266"/>
      <use xlink:href="#DejaVuSans-67" x="375.976562"/>
      <use xlink:href="#DejaVuSans-65" x="439.453125"/>
      <use xlink:href="#DejaVuSans-73" x="500.976562"/>
     </g>
    </g>
    <g id="patch_5">
     <path d="M 485.292691 110.246016 
L 509.292691 110.246016 
L 509.292691 101.846016 
L 485.292691 101.846016 
z
" style="fill: #e41a1c; opacity: 0.4"/>
    </g>
    <g id="text_15">
     <!-- Middle school -->
     <g transform="translate(518.892691 110.246016)scale(0.12 -0.12)">
      <defs>
       <path id="DejaVuSans-4d" d="M 628 4666 
L 1569 4666 
L 2759 1491 
L 3956 4666 
L 4897 4666 
L 4897 0 
L 4281 0 
L 4281 4097 
L 3078 897 
L 2444 897 
L 1241 4097 
L 1241 0 
L 628 0 
L 628 4666 
z
" transform="scale(0.015625)"/>
      </defs>
      <use xlink:href="#DejaVuSans-4d"/>
      <use xlink:href="#DejaVuSans-69" x="86.279297"/>
      <use xlink:href="#DejaVuSans-64" x="114.0625"/>
      <use xlink:href="#DejaVuSans-64" x="177.539062"/>
      <use xlink:href="#DejaVuSans-6c" x="241.015625"/>
      <use xlink:href="#DejaVuSans-65" x="268.798828"/>
      <use xlink:href="#DejaVuSans-20" x="330.322266"/>
      <use xlink:href="#DejaVuSans-73" x="362.109375"/>
      <use xlink:href="#DejaVuSans-63" x="414.208984"/>
      <use xlink:href="#DejaVuSans-68" x="469.189453"/>
      <use xlink:href="#DejaVuSans-6f" x="532.568359"/>
      <use xlink:href="#DejaVuSans-6f" x="593.75"/>
      <use xlink:href="#DejaVuSans-6c" x="654.931641"/>
     </g>
    </g>
    <g id="patch_6">
     <path d="M 485.292691 127.859766 
L 509.292691 127.859766 
L 509.292691 119.459766 
L 485.292691 119.459766 
z
" style="fill: #4daf4a; opacity: 0.4"/>
    </g>
    <g id="text_16">
     <!-- Undergraduate -->
     <g transform="translate(518.892691 127.859766)scale(0.12 -0.12)">
      <defs>
       <path id="DejaVuSans-55" d="M 556 4666 
L 1191 4666 
L 1191 1831 
Q 1191 1081 1462 751 
Q 1734 422 2344 422 
Q 2950 422 3222 751 
Q 3494 1081 3494 1831 
L 3494 4666 
L 4128 4666 
L 4128 1753 
Q 4128 841 3676 375 
Q 3225 -91 2344 -91 
Q 1459 -91 1007 375 
Q 556 841 556 1753 
L 556 4666 
z
" transform="scale(0.015625)"/>
       <path id="DejaVuSans-75" d="M 544 1381 
L 544 3500 
L 1119 3500 
L 1119 1403 
Q 1119 906 1312 657 
Q 1506 409 1894 409 
Q 2359 409 2629 706 
Q 2900 1003 2900 1516 
L 2900 3500 
L 3475 3500 
L 3475 0 
L 2900 0 
L 2900 538 
Q 2691 219 2414 64 
Q 2138 -91 1772 -91 
Q 1169 -91 856 284 
Q 544 659 544 1381 
z
M 1991 3584 
L 1991 3584 
z
" transform="scale(0.015625)"/>
      </defs>
      <use xlink:href="#DejaVuSans-55"/>
      <use xlink:href="#DejaVuSans-6e" x="73.193359"/>
      <use xlink:href="#DejaVuSans-64" x="136.572266"/>
      <use xlink:href="#DejaVuSans-65" x="200.048828"/>
      <use xlink:href="#DejaVuSans-72" x="261.572266"/>
      <use xlink:href="#DejaVuSans-67" x="300.935547"/>
      <use xlink:href="#DejaVuSans-72" x="364.412109"/>
      <use xlink:href="#DejaVuSans-61" x="405.525391"/>
      <use xlink:href="#DejaVuSans-64" x="466.804688"/>
      <use xlink:href="#DejaVuSans-75" x="530.28125"/>
      <use xlink:href="#DejaVuSans-61" x="593.660156"/>
      <use xlink:href="#DejaVuSans-74" x="654.939453"/>
      <use xlink:href="#DejaVuSans-65" x="694.148438"/>
     </g>
    </g>
   </g>
  </g>
  <g id="axes_2">
   <g id="patch_7">
    <path d="M 1090.511624 242.046109 
C 1090.511624 220.063823 1086.181593 198.295286 1077.769336 177.986302 
C 1069.357079 157.677318 1057.026194 139.222844 1041.48237 123.67902 
C 1025.938546 108.135196 1007.484072 95.804311 987.175088 87.392054 
C 966.866103 78.979797 945.097567 74.649766 923.115281 74.649766 
C 901.132994 74.649766 879.364458 78.979797 859.055474 87.392054 
C 838.746489 95.804311 820.292015 108.135196 804.748192 123.67902 
C 789.204368 139.222844 776.873483 157.677318 768.461226 177.986302 
C 760.048969 198.295286 755.718938 220.063823 755.718938 242.046109 
C 755.718938 264.028395 760.048969 285.796932 768.461226 306.105916 
C 776.873483 326.414901 789.204368 344.869375 804.748192 360.413198 
C 820.292015 375.957022 838.746489 388.287907 859.055474 396.700164 
C 879.364458 405.112421 901.132994 409.442452 923.115281 409.442452 
C 945.097567 409.442452 966.866103 405.112421 987.175088 396.700164 
C 1007.484072 388.287907 1025.938546 375.957022 1041.48237 360.413198 
C 1057.026194 344.869375 1069.357079 326.414901 1077.769336 306.105916 
C 1086.181593 285.796932 1090.511624 264.028395 1090.511624 242.046109 
M 923.115281 242.046109 
C 923.115281 242.046109 923.115281 242.046109 923.115281 242.046109 
C 923.115281 242.046109 923.115281 242.046109 923.115281 242.046109 
C 923.115281 242.046109 923.115281 242.046109 923.115281 242.046109 
C 923.115281 242.046109 923.115281 242.046109 923.115281 242.046109 
C 923.115281 242.046109 923.115281 242.046109 923.115281 242.046109 
C 923.115281 242.046109 923.115281 242.046109 923.115281 242.046109 
C 923.115281 242.046109 923.115281 242.046109 923.115281 242.046109 
C 923.115281 242.046109 923.115281 242.046109 923.115281 242.046109 
C 923.115281 242.046109 923.115281 242.046109 923.115281 242.046109 
C 923.115281 242.046109 923.115281 242.046109 923.115281 242.046109 
C 923.115281 242.046109 923.115281 242.046109 923.115281 242.046109 
C 923.115281 242.046109 923.115281 242.046109 923.115281 242.046109 
C 923.115281 242.046109 923.115281 242.046109 923.115281 242.046109 
C 923.115281 242.046109 923.115281 242.046109 923.115281 242.046109 
C 923.115281 242.046109 923.115281 242.046109 923.115281 242.046109 
C 923.115281 242.046109 923.115281 242.046109 923.115281 242.046109 
M 1090.511624 242.046109 
z
" style="fill: #fffaf0"/>
   </g>
   <g id="patch_8">
    <path d="M 923.115281 124.210174 
C 932.396253 124.210174 941.644811 125.306653 950.668498 127.476795 
C 959.692185 129.646936 968.427971 132.875582 976.694068 137.095544 
L 995.604228 100.054168 
C 984.420685 94.344807 972.601681 89.97664 960.393163 87.040566 
C 948.184646 84.104493 935.67189 82.621021 923.115281 82.621021 
z
" clip-path="url(#pac2b788441)" style="fill: #4daf4a; opacity: 0.4"/>
   </g>
   <g id="patch_9">
    <path d="M 976.694068 137.095544 
C 987.732636 142.730893 997.813329 150.072655 1006.563825 158.849667 
C 1015.314322 167.62668 1022.62555 177.72954 1028.227474 188.785108 
L 1065.325896 169.987107 
C 1057.746821 155.029574 1047.85516 141.360999 1036.016253 129.486217 
C 1024.177346 117.611435 1010.538761 107.678464 995.604228 100.054168 
z
" clip-path="url(#pac2b788441)" style="fill: #ff7f00; opacity: 0.4"/>
   </g>
   <g id="patch_10">
    <path d="M 1028.227474 188.785108 
C 1034.698834 201.556531 1038.788698 215.40111 1040.296206 229.638919 
C 1041.803714 243.876727 1040.703777 258.270805 1037.050416 272.114241 
L 1077.262817 282.726523 
C 1082.2056 263.997168 1083.693749 244.522827 1081.654179 225.25991 
C 1079.614609 205.996993 1074.081265 187.266092 1065.325896 169.987107 
z
" clip-path="url(#pac2b788441)" style="fill: #a65628; opacity: 0.4"/>
   </g>
   <g id="line2d_3">
    <path d="M 923.115281 89.552546 
L 999.362062 109.98281 
L 1055.17858 165.799328 
L 1075.608844 242.046109 
L 1055.17858 318.292891 
L 999.362062 374.109408 
L 923.115281 394.539672 
L 846.868499 374.109408 
L 791.051981 318.292891 
L 770.621718 242.046109 
L 791.051981 165.799328 
L 846.868499 109.98281 
L 923.115281 89.552546 
" clip-path="url(#pac2b788441)" style="fill: none; stroke: #b8860b; stroke-width: 2; stroke-linecap: square"/>
   </g>
   <g id="text_17">
    <!-- 72 | 19 -->
    <g style="fill: #006400" transform="translate(900.047156 78.86012)scale(0.12 -0.12)">
     <use xlink:href="#DejaVuSans-Bold-37"/>
     <use xlink:href="#DejaVuSans-Bold-32" x="69.580078"/>
     <use xlink:href="#DejaVuSans-Bold-20" x="139.160156"/>
     <use xlink:href="#DejaVuSans-Bold-7c" x="173.974609"/>
     <use xlink:href="#DejaVuSans-Bold-20" x="210.498047"/>
     <use xlink:href="#DejaVuSans-Bold-31" x="245.3125"/>
     <use xlink:href="#DejaVuSans-Bold-39" x="314.892578"/>
    </g>
   </g>
   <g id="text_18">
    <!-- 21.2 -->
    <g style="fill: #006400" transform="translate(991.490463 101.288305)scale(0.12 -0.12)">
     <use xlink:href="#DejaVuSans-Bold-32"/>
     <use xlink:href="#DejaVuSans-Bold-31" x="69.580078"/>
     <use xlink:href="#DejaVuSans-Bold-2e" x="139.160156"/>
     <use xlink:href="#DejaVuSans-Bold-32" x="177.148438"/>
    </g>
   </g>
   <g id="text_19">
    <!-- 23.7 -->
    <g style="fill: #006400" transform="translate(1052.38121 162.179052)scale(0.12 -0.12)">
     <use xlink:href="#DejaVuSans-Bold-32"/>
     <use xlink:href="#DejaVuSans-Bold-33" x="69.580078"/>
     <use xlink:href="#DejaVuSans-Bold-2e" x="139.160156"/>
     <use xlink:href="#DejaVuSans-Bold-37" x="177.148438"/>
    </g>
   </g>
   <g id="text_20">
    <!-- 26.5 -->
    <g style="fill: #006400" transform="translate(1074.66877 245.357359)scale(0.12 -0.12)">
     <use xlink:href="#DejaVuSans-Bold-32"/>
     <use xlink:href="#DejaVuSans-Bold-36" x="69.580078"/>
     <use xlink:href="#DejaVuSans-Bold-2e" x="139.160156"/>
     <use xlink:href="#DejaVuSans-Bold-35" x="177.148438"/>
    </g>
   </g>
   <g id="text_21">
    <!-- 29.6 -->
    <g style="fill: #006400" transform="translate(1052.38121 328.535666)scale(0.12 -0.12)">
     <use xlink:href="#DejaVuSans-Bold-32"/>
     <use xlink:href="#DejaVuSans-Bold-39" x="69.580078"/>
     <use xlink:href="#DejaVuSans-Bold-2e" x="139.160156"/>
     <use xlink:href="#DejaVuSans-Bold-36" x="177.148438"/>
    </g>
   </g>
   <g id="text_22">
    <!-- 33.1 -->
    <g style="fill: #006400" transform="translate(991.490463 389.426413)scale(0.12 -0.12)">
     <use xlink:href="#DejaVuSans-Bold-33"/>
     <use xlink:href="#DejaVuSans-Bold-33" x="69.580078"/>
     <use xlink:href="#DejaVuSans-Bold-2e" x="139.160156"/>
     <use xlink:href="#DejaVuSans-Bold-31" x="177.148438"/>
    </g>
   </g>
   <g id="text_23">
    <!-- 37.0 -->
    <g style="fill: #006400" transform="translate(908.312156 411.713973)scale(0.12 -0.12)">
     <use xlink:href="#DejaVuSans-Bold-33"/>
     <use xlink:href="#DejaVuSans-Bold-37" x="69.580078"/>
     <use xlink:href="#DejaVuSans-Bold-2e" x="139.160156"/>
     <use xlink:href="#DejaVuSans-Bold-30" x="177.148438"/>
    </g>
   </g>
   <g id="text_24">
    <!-- 41.3 -->
    <g style="fill: #006400" transform="translate(825.133849 389.426413)scale(0.12 -0.12)">
     <defs>
      <path id="DejaVuSans-Bold-34" d="M 2356 3675 
L 1038 1722 
L 2356 1722 
L 2356 3675 
z
M 2156 4666 
L 3494 4666 
L 3494 1722 
L 4159 1722 
L 4159 850 
L 3494 850 
L 3494 0 
L 2356 0 
L 2356 850 
L 288 850 
L 288 1881 
L 2156 4666 
z
" transform="scale(0.015625)"/>
     </defs>
     <use xlink:href="#DejaVuSans-Bold-34"/>
     <use xlink:href="#DejaVuSans-Bold-31" x="69.580078"/>
     <use xlink:href="#DejaVuSans-Bold-2e" x="139.160156"/>
     <use xlink:href="#DejaVuSans-Bold-33" x="177.148438"/>
    </g>
   </g>
   <g id="text_25">
    <!-- 46.2 -->
    <g style="fill: #006400" transform="translate(764.243102 328.535666)scale(0.12 -0.12)">
     <use xlink:href="#DejaVuSans-Bold-34"/>
     <use xlink:href="#DejaVuSans-Bold-36" x="69.580078"/>
     <use xlink:href="#DejaVuSans-Bold-2e" x="139.160156"/>
     <use xlink:href="#DejaVuSans-Bold-32" x="177.148438"/>
    </g>
   </g>
   <g id="text_26">
    <!-- 51.6 -->
    <g style="fill: #006400" transform="translate(741.955542 245.357359)scale(0.12 -0.12)">
     <use xlink:href="#DejaVuSans-Bold-35"/>
     <use xlink:href="#DejaVuSans-Bold-31" x="69.580078"/>
     <use xlink:href="#DejaVuSans-Bold-2e" x="139.160156"/>
     <use xlink:href="#DejaVuSans-Bold-36" x="177.148438"/>
    </g>
   </g>
   <g id="text_27">
    <!-- 57.7 -->
    <g style="fill: #006400" transform="translate(764.243102 162.179052)scale(0.12 -0.12)">
     <use xlink:href="#DejaVuSans-Bold-35"/>
     <use xlink:href="#DejaVuSans-Bold-37" x="69.580078"/>
     <use xlink:href="#DejaVuSans-Bold-2e" x="139.160156"/>
     <use xlink:href="#DejaVuSans-Bold-37" x="177.148438"/>
    </g>
   </g>
   <g id="text_28">
    <!-- 64.4 -->
    <g style="fill: #006400" transform="translate(825.133849 101.288305)scale(0.12 -0.12)">
     <use xlink:href="#DejaVuSans-Bold-36"/>
     <use xlink:href="#DejaVuSans-Bold-34" x="69.580078"/>
     <use xlink:href="#DejaVuSans-Bold-2e" x="139.160156"/>
     <use xlink:href="#DejaVuSans-Bold-34" x="177.148438"/>
    </g>
   </g>
   <g id="text_29">
    <!-- Adulthood to Senior -->
    <g style="fill: #8b0000" transform="translate(853.664343 28.972829)scale(0.14 -0.14)">
     <use xlink:href="#DejaVuSans-41"/>
     <use xlink:href="#DejaVuSans-64" x="66.658203"/>
     <use xlink:href="#DejaVuSans-75" x="130.134766"/>
     <use xlink:href="#DejaVuSans-6c" x="193.513672"/>
     <use xlink:href="#DejaVuSans-74" x="221.296875"/>
     <use xlink:href="#DejaVuSans-68" x="260.505859"/>
     <use xlink:href="#DejaVuSans-6f" x="323.884766"/>
     <use xlink:href="#DejaVuSans-6f" x="385.066406"/>
     <use xlink:href="#DejaVuSans-64" x="446.248047"/>
     <use xlink:href="#DejaVuSans-20" x="509.724609"/>
     <use xlink:href="#DejaVuSans-74" x="541.511719"/>
     <use xlink:href="#DejaVuSans-6f" x="580.720703"/>
     <use xlink:href="#DejaVuSans-20" x="641.902344"/>
     <use xlink:href="#DejaVuSans-53" x="673.689453"/>
     <use xlink:href="#DejaVuSans-65" x="737.166016"/>
     <use xlink:href="#DejaVuSans-6e" x="798.689453"/>
     <use xlink:href="#DejaVuSans-69" x="862.068359"/>
     <use xlink:href="#DejaVuSans-6f" x="889.851562"/>
     <use xlink:href="#DejaVuSans-72" x="951.033203"/>
    </g>
    <!-- (19-72 Years) -->
    <g style="fill: #8b0000" transform="translate(876.618875 44.649766)scale(0.14 -0.14)">
     <defs>
      <path id="DejaVuSans-37" d="M 525 4666 
L 3525 4666 
L 3525 4397 
L 1831 0 
L 1172 0 
L 2766 4134 
L 525 4134 
L 525 4666 
z
" transform="scale(0.015625)"/>
      <path id="DejaVuSans-32" d="M 1228 531 
L 3431 531 
L 3431 0 
L 469 0 
L 469 531 
Q 828 903 1448 1529 
Q 2069 2156 2228 2338 
Q 2531 2678 2651 2914 
Q 2772 3150 2772 3378 
Q 2772 3750 2511 3984 
Q 2250 4219 1831 4219 
Q 1534 4219 1204 4116 
Q 875 4013 500 3803 
L 500 4441 
Q 881 4594 1212 4672 
Q 1544 4750 1819 4750 
Q 2544 4750 2975 4387 
Q 3406 4025 3406 3419 
Q 3406 3131 3298 2873 
Q 3191 2616 2906 2266 
Q 2828 2175 2409 1742 
Q 1991 1309 1228 531 
z
" transform="scale(0.015625)"/>
     </defs>
     <use xlink:href="#DejaVuSans-28"/>
     <use xlink:href="#DejaVuSans-31" x="39.013672"/>
     <use xlink:href="#DejaVuSans-39" x="102.636719"/>
     <use xlink:href="#DejaVuSans-2d" x="166.259766"/>
     <use xlink:href="#DejaVuSans-37" x="202.34375"/>
     <use xlink:href="#DejaVuSans-32" x="265.966797"/>
     <use xlink:href="#DejaVuSans-20" x="329.589844"/>
     <use xlink:href="#DejaVuSans-59" x="361.376953"/>
     <use xlink:href="#DejaVuSans-65" x="409.210938"/>
     <use xlink:href="#DejaVuSans-61" x="470.734375"/>
     <use xlink:href="#DejaVuSans-72" x="532.013672"/>
     <use xlink:href="#DejaVuSans-73" x="573.126953"/>
     <use xlink:href="#DejaVuSans-29" x="625.226562"/>
    </g>
   </g>
   <g id="LineCollection_13">
    <path d="M 988.964774 127.991441 
L 995.896299 115.985687 
" clip-path="url(#pac2b788441)" style="fill: none; stroke: #8b4513; stroke-width: 2"/>
   </g>
   <g id="LineCollection_14">
    <path d="M 1037.169948 176.196616 
L 1049.175703 169.26509 
" clip-path="url(#pac2b788441)" style="fill: none; stroke: #8b4513; stroke-width: 2"/>
   </g>
   <g id="LineCollection_15">
    <path d="M 1054.814267 242.046109 
L 1068.677318 242.046109 
" clip-path="url(#pac2b788441)" style="fill: none; stroke: #8b4513; stroke-width: 2"/>
   </g>
   <g id="LineCollection_16">
    <path d="M 1037.169948 307.895602 
L 1049.175703 314.827128 
" clip-path="url(#pac2b788441)" style="fill: none; stroke: #8b4513; stroke-width: 2"/>
   </g>
   <g id="LineCollection_17">
    <path d="M 988.964774 356.100777 
L 995.896299 368.106531 
" clip-path="url(#pac2b788441)" style="fill: none; stroke: #8b4513; stroke-width: 2"/>
   </g>
   <g id="LineCollection_18">
    <path d="M 923.115281 373.745095 
L 923.115281 387.608146 
" clip-path="url(#pac2b788441)" style="fill: none; stroke: #8b4513; stroke-width: 2"/>
   </g>
   <g id="LineCollection_19">
    <path d="M 857.265788 356.100777 
L 850.334262 368.106531 
" clip-path="url(#pac2b788441)" style="fill: none; stroke: #8b4513; stroke-width: 2"/>
   </g>
   <g id="LineCollection_20">
    <path d="M 809.060613 307.895602 
L 797.054859 314.827128 
" clip-path="url(#pac2b788441)" style="fill: none; stroke: #8b4513; stroke-width: 2"/>
   </g>
   <g id="LineCollection_21">
    <path d="M 791.416295 242.046109 
L 777.553243 242.046109 
" clip-path="url(#pac2b788441)" style="fill: none; stroke: #8b4513; stroke-width: 2"/>
   </g>
   <g id="LineCollection_22">
    <path d="M 809.060613 176.196616 
L 797.054859 169.26509 
" clip-path="url(#pac2b788441)" style="fill: none; stroke: #8b4513; stroke-width: 2"/>
   </g>
   <g id="LineCollection_23">
    <path d="M 857.265788 127.991441 
L 850.334262 115.985687 
" clip-path="url(#pac2b788441)" style="fill: none; stroke: #8b4513; stroke-width: 2"/>
   </g>
   <g id="LineCollection_24">
    <path d="M 923.115281 110.347123 
L 923.115281 96.484072 
" clip-path="url(#pac2b788441)" style="fill: none; stroke: #8b4513; stroke-width: 2"/>
   </g>
   <g id="line2d_4">
    <g clip-path="url(#pac2b788441)">
     <use xlink:href="#m9625861ba1" x="923.115281" y="242.046109" style="stroke: #000000"/>
    </g>
   </g>
   <g id="Quiver_1">
    <path d="M 922.992927 240.712539 
L 994.338902 234.166635 
L 992.760626 231.621849 
L 1006.463382 234.399025 
L 993.494746 239.623267 
L 994.583609 236.833774 
L 923.237634 243.379679 
L 922.992927 240.712539 
" clip-path="url(#pac2b788441)" style="fill: #8b0000"/>
   </g>
   <g id="legend_2">
    <g id="text_30">
     <!-- Life Stages -->
     <g transform="translate(1152.53782 93.048204)scale(0.1 -0.1)">
      <use xlink:href="#DejaVuSans-4c"/>
      <use xlink:href="#DejaVuSans-69" x="55.712891"/>
      <use xlink:href="#DejaVuSans-66" x="83.496094"/>
      <use xlink:href="#DejaVuSans-65" x="118.701172"/>
      <use xlink:href="#DejaVuSans-20" x="180.224609"/>
      <use xlink:href="#DejaVuSans-53" x="212.011719"/>
      <use xlink:href="#DejaVuSans-74" x="275.488281"/>
      <use xlink:href="#DejaVuSans-61" x="314.697266"/>
      <use xlink:href="#DejaVuSans-67" x="375.976562"/>
      <use xlink:href="#DejaVuSans-65" x="439.453125"/>
      <use xlink:href="#DejaVuSans-73" x="500.976562"/>
     </g>
    </g>
    <g id="patch_11">
     <path d="M 1118.051258 110.246016 
L 1142.051258 110.246016 
L 1142.051258 101.846016 
L 1118.051258 101.846016 
z
" style="fill: #4daf4a; opacity: 0.4"/>
    </g>
    <g id="text_31">
     <!-- Undergraduate -->
     <g transform="translate(1151.651258 110.246016)scale(0.12 -0.12)">
      <use xlink:href="#DejaVuSans-55"/>
      <use xlink:href="#DejaVuSans-6e" x="73.193359"/>
      <use xlink:href="#DejaVuSans-64" x="136.572266"/>
      <use xlink:href="#DejaVuSans-65" x="200.048828"/>
      <use xlink:href="#DejaVuSans-72" x="261.572266"/>
      <use xlink:href="#DejaVuSans-67" x="300.935547"/>
      <use xlink:href="#DejaVuSans-72" x="364.412109"/>
      <use xlink:href="#DejaVuSans-61" x="405.525391"/>
      <use xlink:href="#DejaVuSans-64" x="466.804688"/>
      <use xlink:href="#DejaVuSans-75" x="530.28125"/>
      <use xlink:href="#DejaVuSans-61" x="593.660156"/>
      <use xlink:href="#DejaVuSans-74" x="654.939453"/>
      <use xlink:href="#DejaVuSans-65" x="694.148438"/>
     </g>
    </g>
    <g id="patch_12">
     <path d="M 1118.051258 127.859766 
L 1142.051258 127.859766 
L 1142.051258 119.459766 
L 1118.051258 119.459766 
z
" style="fill: #ff7f00; opacity: 0.4"/>
    </g>
    <g id="text_32">
     <!-- Master's -->
     <g transform="translate(1151.651258 127.859766)scale(0.12 -0.12)">
      <defs>
       <path id="DejaVuSans-27" d="M 1147 4666 
L 1147 2931 
L 616 2931 
L 616 4666 
L 1147 4666 
z
" transform="scale(0.015625)"/>
      </defs>
      <use xlink:href="#DejaVuSans-4d"/>
      <use xlink:href="#DejaVuSans-61" x="86.279297"/>
      <use xlink:href="#DejaVuSans-73" x="147.558594"/>
      <use xlink:href="#DejaVuSans-74" x="199.658203"/>
      <use xlink:href="#DejaVuSans-65" x="238.867188"/>
      <use xlink:href="#DejaVuSans-72" x="300.390625"/>
      <use xlink:href="#DejaVuSans-27" x="341.503906"/>
      <use xlink:href="#DejaVuSans-73" x="368.994141"/>
     </g>
    </g>
    <g id="patch_13">
     <path d="M 1118.051258 145.473516 
L 1142.051258 145.473516 
L 1142.051258 137.073516 
L 1118.051258 137.073516 
z
" style="fill: #a65628; opacity: 0.4"/>
    </g>
    <g id="text_33">
     <!-- PhD -->
     <g transform="translate(1151.651258 145.473516)scale(0.12 -0.12)">
      <defs>
       <path id="DejaVuSans-50" d="M 1259 4147 
L 1259 2394 
L 2053 2394 
Q 2494 2394 2734 2622 
Q 2975 2850 2975 3272 
Q 2975 3691 2734 3919 
Q 2494 4147 2053 4147 
L 1259 4147 
z
M 628 4666 
L 2053 4666 
Q 2838 4666 3239 4311 
Q 3641 3956 3641 3272 
Q 3641 2581 3239 2228 
Q 2838 1875 2053 1875 
L 1259 1875 
L 1259 0 
L 628 0 
L 628 4666 
z
" transform="scale(0.015625)"/>
       <path id="DejaVuSans-44" d="M 1259 4147 
L 1259 519 
L 2022 519 
Q 2988 519 3436 956 
Q 3884 1394 3884 2338 
Q 3884 3275 3436 3711 
Q 2988 4147 2022 4147 
L 1259 4147 
z
M 628 4666 
L 1925 4666 
Q 3281 4666 3915 4102 
Q 4550 3538 4550 2338 
Q 4550 1131 3912 565 
Q 3275 0 1925 0 
L 628 0 
L 628 4666 
z
" transform="scale(0.015625)"/>
      </defs>
      <use xlink:href="#DejaVuSans-50"/>
      <use xlink:href="#DejaVuSans-68" x="60.302734"/>
      <use xlink:href="#DejaVuSans-44" x="123.681641"/>
     </g>
    </g>
   </g>
   <g id="Quiver_2">
    <path d="M 922.352863 243.536368 
L 831.447046 197.028887 
L 831.41247 200.771823 
L 818.79713 188.676868 
L 835.986976 191.830267 
L 832.971882 194.048368 
L 923.877698 240.55585 
L 922.352863 243.536368 
" clip-path="url(#pac2b788441)"/>
   </g>
  </g>
  <g id="text_34">
   <!-- Life Clocks Visualization -->
   <g style="fill: #800000" transform="translate(556.114219 445.968)scale(0.18 -0.18)">
    <defs>
     <path id="DejaVuSans-Bold-4c" d="M 588 4666 
L 1791 4666 
L 1791 909 
L 3903 909 
L 3903 0 
L 588 0 
L 588 4666 
z
" transform="scale(0.015625)"/>
     <path id="DejaVuSans-Bold-69" d="M 538 3500 
L 1656 3500 
L 1656 0 
L 538 0 
L 538 3500 
z
M 538 4863 
L 1656 4863 
L 1656 3950 
L 538 3950 
L 538 4863 
z
" transform="scale(0.015625)"/>
     <path id="DejaVuSans-Bold-66" d="M 2841 4863 
L 2841 4128 
L 2222 4128 
Q 1984 4128 1890 4042 
Q 1797 3956 1797 3744 
L 1797 3500 
L 2753 3500 
L 2753 2700 
L 1797 2700 
L 1797 0 
L 678 0 
L 678 2700 
L 122 2700 
L 122 3500 
L 678 3500 
L 678 3744 
Q 678 4316 997 4589 
Q 1316 4863 1984 4863 
L 2841 4863 
z
" transform="scale(0.015625)"/>
     <path id="DejaVuSans-Bold-65" d="M 4031 1759 
L 4031 1441 
L 1416 1441 
Q 1456 1047 1700 850 
Q 1944 653 2381 653 
Q 2734 653 3104 758 
Q 3475 863 3866 1075 
L 3866 213 
Q 3469 63 3072 -14 
Q 2675 -91 2278 -91 
Q 1328 -91 801 392 
Q 275 875 275 1747 
Q 275 2603 792 3093 
Q 1309 3584 2216 3584 
Q 3041 3584 3536 3087 
Q 4031 2591 4031 1759 
z
M 2881 2131 
Q 2881 2450 2695 2645 
Q 2509 2841 2209 2841 
Q 1884 2841 1681 2658 
Q 1478 2475 1428 2131 
L 2881 2131 
z
" transform="scale(0.015625)"/>
     <path id="DejaVuSans-Bold-43" d="M 4288 256 
Q 3956 84 3597 -3 
Q 3238 -91 2847 -91 
Q 1681 -91 1000 561 
Q 319 1213 319 2328 
Q 319 3447 1000 4098 
Q 1681 4750 2847 4750 
Q 3238 4750 3597 4662 
Q 3956 4575 4288 4403 
L 4288 3438 
Q 3953 3666 3628 3772 
Q 3303 3878 2944 3878 
Q 2300 3878 1931 3465 
Q 1563 3053 1563 2328 
Q 1563 1606 1931 1193 
Q 2300 781 2944 781 
Q 3303 781 3628 887 
Q 3953 994 4288 1222 
L 4288 256 
z
" transform="scale(0.015625)"/>
     <path id="DejaVuSans-Bold-6c" d="M 538 4863 
L 1656 4863 
L 1656 0 
L 538 0 
L 538 4863 
z
" transform="scale(0.015625)"/>
     <path id="DejaVuSans-Bold-6f" d="M 2203 2784 
Q 1831 2784 1636 2517 
Q 1441 2250 1441 1747 
Q 1441 1244 1636 976 
Q 1831 709 2203 709 
Q 2569 709 2762 976 
Q 2956 1244 2956 1747 
Q 2956 2250 2762 2517 
Q 2569 2784 2203 2784 
z
M 2203 3584 
Q 3106 3584 3614 3096 
Q 4122 2609 4122 1747 
Q 4122 884 3614 396 
Q 3106 -91 2203 -91 
Q 1297 -91 786 396 
Q 275 884 275 1747 
Q 275 2609 786 3096 
Q 1297 3584 2203 3584 
z
" transform="scale(0.015625)"/>
     <path id="DejaVuSans-Bold-63" d="M 3366 3391 
L 3366 2478 
Q 3138 2634 2908 2709 
Q 2678 2784 2431 2784 
Q 1963 2784 1702 2511 
Q 1441 2238 1441 1747 
Q 1441 1256 1702 982 
Q 1963 709 2431 709 
Q 2694 709 2930 787 
Q 3166 866 3366 1019 
L 3366 103 
Q 3103 6 2833 -42 
Q 2563 -91 2291 -91 
Q 1344 -91 809 395 
Q 275 881 275 1747 
Q 275 2613 809 3098 
Q 1344 3584 2291 3584 
Q 2566 3584 2833 3536 
Q 3100 3488 3366 3391 
z
" transform="scale(0.015625)"/>
     <path id="DejaVuSans-Bold-6b" d="M 538 4863 
L 1656 4863 
L 1656 2216 
L 2944 3500 
L 4244 3500 
L 2534 1894 
L 4378 0 
L 3022 0 
L 1656 1459 
L 1656 0 
L 538 0 
L 538 4863 
z
" transform="scale(0.015625)"/>
     <path id="DejaVuSans-Bold-73" d="M 3272 3391 
L 3272 2541 
Q 2913 2691 2578 2766 
Q 2244 2841 1947 2841 
Q 1628 2841 1473 2761 
Q 1319 2681 1319 2516 
Q 1319 2381 1436 2309 
Q 1553 2238 1856 2203 
L 2053 2175 
Q 2913 2066 3209 1816 
Q 3506 1566 3506 1031 
Q 3506 472 3093 190 
Q 2681 -91 1863 -91 
Q 1516 -91 1145 -36 
Q 775 19 384 128 
L 384 978 
Q 719 816 1070 734 
Q 1422 653 1784 653 
Q 2113 653 2278 743 
Q 2444 834 2444 1013 
Q 2444 1163 2330 1236 
Q 2216 1309 1875 1350 
L 1678 1375 
Q 931 1469 631 1722 
Q 331 1975 331 2491 
Q 331 3047 712 3315 
Q 1094 3584 1881 3584 
Q 2191 3584 2531 3537 
Q 2872 3491 3272 3391 
z
" transform="scale(0.015625)"/>
     <path id="DejaVuSans-Bold-56" d="M 31 4666 
L 1241 4666 
L 2478 1222 
L 3713 4666 
L 4922 4666 
L 3194 0 
L 1759 0 
L 31 4666 
z
" transform="scale(0.015625)"/>
     <path id="DejaVuSans-Bold-75" d="M 500 1363 
L 500 3500 
L 1625 3500 
L 1625 3150 
Q 1625 2866 1622 2436 
Q 1619 2006 1619 1863 
Q 1619 1441 1641 1255 
Q 1663 1069 1716 984 
Q 1784 875 1895 815 
Q 2006 756 2150 756 
Q 2500 756 2700 1025 
Q 2900 1294 2900 1772 
L 2900 3500 
L 4019 3500 
L 4019 0 
L 2900 0 
L 2900 506 
Q 2647 200 2364 54 
Q 2081 -91 1741 -91 
Q 1134 -91 817 281 
Q 500 653 500 1363 
z
" transform="scale(0.015625)"/>
     <path id="DejaVuSans-Bold-61" d="M 2106 1575 
Q 1756 1575 1579 1456 
Q 1403 1338 1403 1106 
Q 1403 894 1545 773 
Q 1688 653 1941 653 
Q 2256 653 2472 879 
Q 2688 1106 2688 1447 
L 2688 1575 
L 2106 1575 
z
M 3816 1997 
L 3816 0 
L 2688 0 
L 2688 519 
Q 2463 200 2181 54 
Q 1900 -91 1497 -91 
Q 953 -91 614 226 
Q 275 544 275 1050 
Q 275 1666 698 1953 
Q 1122 2241 2028 2241 
L 2688 2241 
L 2688 2328 
Q 2688 2594 2478 2717 
Q 2269 2841 1825 2841 
Q 1466 2841 1156 2769 
Q 847 2697 581 2553 
L 581 3406 
Q 941 3494 1303 3539 
Q 1666 3584 2028 3584 
Q 2975 3584 3395 3211 
Q 3816 2838 3816 1997 
z
" transform="scale(0.015625)"/>
     <path id="DejaVuSans-Bold-7a" d="M 366 3500 
L 3419 3500 
L 3419 2719 
L 1575 800 
L 3419 800 
L 3419 0 
L 288 0 
L 288 781 
L 2131 2700 
L 366 2700 
L 366 3500 
z
" transform="scale(0.015625)"/>
     <path id="DejaVuSans-Bold-74" d="M 1759 4494 
L 1759 3500 
L 2913 3500 
L 2913 2700 
L 1759 2700 
L 1759 1216 
Q 1759 972 1856 886 
Q 1953 800 2241 800 
L 2816 800 
L 2816 0 
L 1856 0 
Q 1194 0 917 276 
Q 641 553 641 1216 
L 641 2700 
L 84 2700 
L 84 3500 
L 641 3500 
L 641 4494 
L 1759 4494 
z
" transform="scale(0.015625)"/>
     <path id="DejaVuSans-Bold-6e" d="M 4056 2131 
L 4056 0 
L 2931 0 
L 2931 347 
L 2931 1631 
Q 2931 2084 2911 2256 
Q 2891 2428 2841 2509 
Q 2775 2619 2662 2680 
Q 2550 2741 2406 2741 
Q 2056 2741 1856 2470 
Q 1656 2200 1656 1722 
L 1656 0 
L 538 0 
L 538 3500 
L 1656 3500 
L 1656 2988 
Q 1909 3294 2193 3439 
Q 2478 3584 2822 3584 
Q 3428 3584 3742 3212 
Q 4056 2841 4056 2131 
z
" transform="scale(0.015625)"/>
    </defs>
    <use xlink:href="#DejaVuSans-Bold-4c"/>
    <use xlink:href="#DejaVuSans-Bold-69" x="63.720703"/>
    <use xlink:href="#DejaVuSans-Bold-66" x="97.998047"/>
    <use xlink:href="#DejaVuSans-Bold-65" x="141.503906"/>
    <use xlink:href="#DejaVuSans-Bold-20" x="209.326172"/>
    <use xlink:href="#DejaVuSans-Bold-43" x="244.140625"/>
    <use xlink:href="#DejaVuSans-Bold-6c" x="317.529297"/>
    <use xlink:href="#DejaVuSans-Bold-6f" x="351.806641"/>
    <use xlink:href="#DejaVuSans-Bold-63" x="420.507812"/>
    <use xlink:href="#DejaVuSans-Bold-6b" x="479.785156"/>
    <use xlink:href="#DejaVuSans-Bold-73" x="546.289062"/>
    <use xlink:href="#DejaVuSans-Bold-20" x="605.810547"/>
    <use xlink:href="#DejaVuSans-Bold-56" x="640.625"/>
    <use xlink:href="#DejaVuSans-Bold-69" x="716.267578"/>
    <use xlink:href="#DejaVuSans-Bold-73" x="750.544922"/>
    <use xlink:href="#DejaVuSans-Bold-75" x="810.066406"/>
    <use xlink:href="#DejaVuSans-Bold-61" x="881.257812"/>
    <use xlink:href="#DejaVuSans-Bold-6c" x="948.738281"/>
    <use xlink:href="#DejaVuSans-Bold-69" x="983.015625"/>
    <use xlink:href="#DejaVuSans-Bold-7a" x="1017.292969"/>
    <use xlink:href="#DejaVuSans-Bold-61" x="1075.496094"/>
    <use xlink:href="#DejaVuSans-Bold-74" x="1142.976562"/>
    <use xlink:href="#DejaVuSans-Bold-69" x="1190.779297"/>
    <use xlink:href="#DejaVuSans-Bold-6f" x="1225.056641"/>
    <use xlink:href="#DejaVuSans-Bold-6e" x="1293.757812"/>
   </g>
  </g>
 </g>
 <defs>
  <clipPath id="pc22e96e763">
   <path d="M 457.753057 242.046109 
C 457.753057 220.063823 453.423026 198.295286 445.010769 177.986302 
C 436.598512 157.677318 424.267627 139.222844 408.723803 123.67902 
C 393.179979 108.135196 374.725506 95.804311 354.416521 87.392054 
C 334.107537 78.979797 312.339 74.649766 290.356714 74.649766 
C 268.374428 74.649766 246.605891 78.979797 226.296907 87.392054 
C 205.987923 95.804311 187.533449 108.135196 171.989625 123.67902 
C 156.445801 139.222844 144.114916 157.677318 135.702659 177.986302 
C 127.290402 198.295286 122.960371 220.063823 122.960371 242.046109 
C 122.960371 264.028395 127.290402 285.796932 135.702659 306.105916 
C 144.114916 326.414901 156.445801 344.869375 171.989625 360.413198 
C 187.533449 375.957022 205.987923 388.287907 226.296907 396.700164 
C 246.605891 405.112421 268.374428 409.442452 290.356714 409.442452 
C 312.339 409.442452 334.107537 405.112421 354.416521 396.700164 
C 374.725506 388.287907 393.179979 375.957022 408.723803 360.413198 
C 424.267627 344.869375 436.598512 326.414901 445.010769 306.105916 
C 453.423026 285.796932 457.753057 264.028395 457.753057 242.046109 
M 290.356714 242.046109 
C 290.356714 242.046109 290.356714 242.046109 290.356714 242.046109 
C 290.356714 242.046109 290.356714 242.046109 290.356714 242.046109 
C 290.356714 242.046109 290.356714 242.046109 290.356714 242.046109 
C 290.356714 242.046109 290.356714 242.046109 290.356714 242.046109 
C 290.356714 242.046109 290.356714 242.046109 290.356714 242.046109 
C 290.356714 242.046109 290.356714 242.046109 290.356714 242.046109 
C 290.356714 242.046109 290.356714 242.046109 290.356714 242.046109 
C 290.356714 242.046109 290.356714 242.046109 290.356714 242.046109 
C 290.356714 242.046109 290.356714 242.046109 290.356714 242.046109 
C 290.356714 242.046109 290.356714 242.046109 290.356714 242.046109 
C 290.356714 242.046109 290.356714 242.046109 290.356714 242.046109 
C 290.356714 242.046109 290.356714 242.046109 290.356714 242.046109 
C 290.356714 242.046109 290.356714 242.046109 290.356714 242.046109 
C 290.356714 242.046109 290.356714 242.046109 290.356714 242.046109 
C 290.356714 242.046109 290.356714 242.046109 290.356714 242.046109 
C 290.356714 242.046109 290.356714 242.046109 290.356714 242.046109 
M 457.753057 242.046109 
z
"/>
  </clipPath>
  <clipPath id="pac2b788441">
   <path d="M 1090.511624 242.046109 
C 1090.511624 220.063823 1086.181593 198.295286 1077.769336 177.986302 
C 1069.357079 157.677318 1057.026194 139.222844 1041.48237 123.67902 
C 1025.938546 108.135196 1007.484072 95.804311 987.175088 87.392054 
C 966.866103 78.979797 945.097567 74.649766 923.115281 74.649766 
C 901.132994 74.649766 879.364458 78.979797 859.055474 87.392054 
C 838.746489 95.804311 820.292015 108.135196 804.748192 123.67902 
C 789.204368 139.222844 776.873483 157.677318 768.461226 177.986302 
C 760.048969 198.295286 755.718938 220.063823 755.718938 242.046109 
C 755.718938 264.028395 760.048969 285.796932 768.461226 306.105916 
C 776.873483 326.414901 789.204368 344.869375 804.748192 360.413198 
C 820.292015 375.957022 838.746489 388.287907 859.055474 396.700164 
C 879.364458 405.112421 901.132994 409.442452 923.115281 409.442452 
C 945.097567 409.442452 966.866103 405.112421 987.175088 396.700164 
C 1007.484072 388.287907 1025.938546 375.957022 1041.48237 360.413198 
C 1057.026194 344.869375 1069.357079 326.414901 1077.769336 306.105916 
C 1086.181593 285.796932 1090.511624 264.028395 1090.511624 242.046109 
M 923.115281 242.046109 
C 923.115281 242.046109 923.115281 242.046109 923.115281 242.046109 
C 923.115281 242.046109 923.115281 242.046109 923.115281 242.046109 
C 923.115281 242.046109 923.115281 242.046109 923.115281 242.046109 
C 923.115281 242.046109 923.115281 242.046109 923.115281 242.046109 
C 923.115281 242.046109 923.115281 242.046109 923.115281 242.046109 
C 923.115281 242.046109 923.115281 242.046109 923.115281 242.046109 
C 923.115281 242.046109 923.115281 242.046109 923.115281 242.046109 
C 923.115281 242.046109 923.115281 242.046109 923.115281 242.046109 
C 923.115281 242.046109 923.115281 242.046109 923.115281 242.046109 
C 923.115281 242.046109 923.115281 242.046109 923.115281 242.046109 
C 923.115281 242.046109 923.115281 242.046109 923.115281 242.046109 
C 923.115281 242.046109 923.115281 242.046109 923.115281 242.046109 
C 923.115281 242.046109 923.115281 242.046109 923.115281 242.046109 
C 923.115281 242.046109 923.115281 242.046109 923.115281 242.046109 
C 923.115281 242.046109 923.115281 242.046109 923.115281 242.046109 
C 923.115281 242.046109 923.115281 242.046109 923.115281 242.046109 
M 1090.511624 242.046109 
z
"/>
  </clipPath>
 </defs>
</svg>
